<svg width="24" height="24" viewBox="0 0 24 24" fill="none" xmlns="http://www.w3.org/2000/svg">
<path d="M14.5302 3.46999L12.5302 1.46999C12.5202 1.45999 12.5102 1.45999 12.5102 1.44999C12.4502 1.38999 12.3702 1.33999 12.2902 1.29999C12.2802 1.29999 12.2802 1.29999 12.2702 1.28999C12.1902 1.25999 12.1102 1.24999 12.0302 1.23999C12.0002 1.23999 11.9802 1.23999 11.9502 1.23999C11.8902 1.23999 11.8302 1.25999 11.7702 1.27999C11.7402 1.28999 11.7202 1.29999 11.7002 1.30999C11.6202 1.34999 11.5402 1.38999 11.4802 1.45999L9.4802 3.45999C9.1902 3.74999 9.1902 4.22999 9.4802 4.51999C9.7702 4.80999 10.2502 4.80999 10.5402 4.51999L11.2602 3.79999V8.99999C11.2602 9.40999 11.6002 9.74999 12.0102 9.74999C12.4202 9.74999 12.7502 9.40999 12.7502 8.99999V3.80999L13.4702 4.52999C13.6202 4.67999 13.8102 4.74999 14.0002 4.74999C14.1902 4.74999 14.3802 4.67999 14.5302 4.52999C14.8202 4.23999 14.8202 3.75999 14.5302 3.46999Z" fill="#171717"/>
<path opacity="0.4" d="M16.19 6H7.81C4.17 6 2 8.17 2 11.81V16.18C2 19.83 4.17 22 7.81 22H16.18C19.82 22 21.99 19.83 21.99 16.19V11.82C22 8.17 19.83 6 16.19 6Z" fill="#171717"/>
<path d="M21.3 12.23H17.82C16.84 12.23 15.97 12.77 15.53 13.65L14.69 15.31C14.49 15.71 14.09 15.96 13.65 15.96H10.37C10.06 15.96 9.62 15.89 9.33 15.31L8.49 13.66C8.05 12.79 7.17 12.24 6.2 12.24H2.7C2.31 12.24 2 12.55 2 12.94V16.2C2 19.83 4.18 22 7.82 22H16.2C19.63 22 21.74 20.12 22 16.78V12.93C22 12.55 21.69 12.23 21.3 12.23Z" fill="#171717"/>
</svg>
