<svg width="29" height="30" viewBox="0 0 29 30" fill="none" xmlns="http://www.w3.org/2000/svg">
<path opacity="0.4" d="M14.3999 27.0001C21.0273 27.0001 26.3999 21.6275 26.3999 15.0001C26.3999 8.37271 21.0273 3.00012 14.3999 3.00012C7.77249 3.00012 2.3999 8.37271 2.3999 15.0001C2.3999 21.6275 7.77249 27.0001 14.3999 27.0001Z" fill="#171717"/>
<path d="M20.3998 19.7641C18.8278 19.7641 17.3278 19.0441 16.1278 17.7121C17.3158 16.1881 18.0838 14.3041 18.2518 12.2401H20.3878C20.8798 12.2401 21.2878 11.8321 21.2878 11.3401C21.2878 10.8481 20.8798 10.4401 20.3878 10.4401H17.4718C17.4478 10.4401 17.4238 10.4281 17.3998 10.4281C17.3758 10.4281 17.3518 10.4401 17.3278 10.4401H15.2998V9.32407C15.2998 8.83207 14.8918 8.42407 14.3998 8.42407C13.9078 8.42407 13.4998 8.83207 13.4998 9.32407V10.4401H8.41182C7.91982 10.4401 7.51182 10.8481 7.51182 11.3401C7.51182 11.8321 7.91982 12.2401 8.41182 12.2401H14.3998H16.4398C15.9958 16.4641 12.5638 19.7641 8.38779 19.7641C7.89579 19.7641 7.48779 20.1721 7.48779 20.6641C7.48779 21.1561 7.89579 21.5641 8.38779 21.5641C10.8718 21.5641 13.1398 20.6041 14.8798 19.0321C16.4038 20.6641 18.3358 21.5641 20.3878 21.5641C20.8798 21.5641 21.2878 21.1561 21.2878 20.6641C21.2878 20.1721 20.8918 19.7641 20.3998 19.7641Z" fill="#171717"/>
</svg>
