<svg width="29" height="30" viewBox="0 0 29 30" fill="none" xmlns="http://www.w3.org/2000/svg">
<path opacity="0.4" d="M10.7998 9.04017V20.5482C10.7998 24.4002 13.1998 26.8002 17.0398 26.8002H20.1478C23.9878 26.8002 26.3878 24.4002 26.3878 20.5602V9.04017C26.3998 5.20017 23.9998 2.80017 20.1598 2.80017H17.0398C13.1998 2.80017 10.7998 5.20017 10.7998 9.04017Z" fill="#171717"/>
<path d="M14.9159 10.1441L18.9359 14.1641C19.2839 14.5121 19.2839 15.0881 18.9359 15.4361L14.9159 19.4561C14.5679 19.8041 13.9919 19.8041 13.6439 19.4561C13.2959 19.1081 13.2959 18.5321 13.6439 18.1841L16.1279 15.7001H3.2999C2.8079 15.7001 2.3999 15.2921 2.3999 14.8001C2.3999 14.3081 2.8079 13.9001 3.2999 13.9001H16.1279L13.6439 11.4161C13.4639 11.2361 13.3799 11.0081 13.3799 10.7801C13.3799 10.5521 13.4639 10.3241 13.6439 10.1441C13.9919 9.78415 14.5559 9.78415 14.9159 10.1441Z" fill="#171717"/>
</svg>
