<svg width="29" height="30" viewBox="0 0 29 30" fill="none" xmlns="http://www.w3.org/2000/svg">
<path opacity="0.4" d="M24.4801 20.3961C24.1441 21.2961 23.4361 21.9801 22.5121 22.2921C21.2161 22.7241 19.8841 23.0481 18.5401 23.2761C18.4081 23.3001 18.2761 23.3241 18.1441 23.3361C17.9281 23.3721 17.7121 23.3961 17.4961 23.4201C17.2321 23.4561 16.9561 23.4801 16.6801 23.5041C15.9241 23.5641 15.1801 23.6001 14.4241 23.6001C13.6561 23.6001 12.8881 23.5641 12.1321 23.4921C11.8081 23.4681 11.4961 23.4321 11.1841 23.3841C11.0041 23.3601 10.8241 23.3361 10.6561 23.3121C10.5241 23.2881 10.3921 23.2761 10.2601 23.2521C8.92815 23.0361 7.60815 22.7121 6.32415 22.2801C5.36415 21.9561 4.63215 21.2721 4.30815 20.3961C3.98415 19.5321 4.10415 18.5241 4.62015 17.6601L5.97615 15.4041C6.26415 14.9121 6.52815 13.9641 6.52815 13.3881V11.1561C6.52815 6.80013 10.0681 3.26013 14.4241 3.26013C18.7681 3.26013 22.3081 6.80013 22.3081 11.1561V13.3881C22.3081 13.9641 22.5721 14.9121 22.8721 15.4041L24.2281 17.6601C24.7201 18.5001 24.8161 19.4841 24.4801 20.3961Z" fill="#171717"/>
<path d="M14.4003 13.7121C13.8963 13.7121 13.4883 13.3041 13.4883 12.8001V9.08009C13.4883 8.57609 13.8963 8.16809 14.4003 8.16809C14.9043 8.16809 15.3123 8.57609 15.3123 9.08009V12.8001C15.3003 13.3041 14.8923 13.7121 14.4003 13.7121Z" fill="#171717"/>
<path d="M17.7961 24.812C17.2921 26.204 15.9601 27.2 14.4001 27.2C13.4521 27.2 12.5161 26.816 11.8561 26.132C11.4721 25.772 11.1841 25.292 11.0161 24.8C11.1721 24.824 11.3281 24.836 11.4961 24.86C11.7721 24.896 12.0601 24.932 12.3481 24.956C13.0321 25.016 13.7281 25.052 14.4241 25.052C15.1081 25.052 15.7921 25.016 16.4641 24.956C16.7161 24.932 16.9681 24.92 17.2081 24.884C17.4001 24.86 17.5921 24.836 17.7961 24.812Z" fill="#171717"/>
</svg>
