<svg width="29" height="29" viewBox="0 0 29 29" fill="none" xmlns="http://www.w3.org/2000/svg">
<path opacity="0.4" d="M25.092 13.544C25.092 19.412 20.832 24.908 15.012 26.516C14.616 26.624 14.184 26.624 13.788 26.516C7.968 24.908 3.70801 19.412 3.70801 13.544V8.27601C3.70801 7.29201 4.45203 6.17601 5.37603 5.80401L12.06 3.06801C13.56 2.45601 15.252 2.45601 16.752 3.06801L23.436 5.80401C24.348 6.17601 25.104 7.29201 25.104 8.27601L25.092 13.544Z" fill="#171717"/>
<path d="M17.3999 12.8C17.3999 11.144 16.0559 9.80005 14.3999 9.80005C12.7439 9.80005 11.3999 11.144 11.3999 12.8C11.3999 14.144 12.2879 15.26 13.4999 15.644V18.8C13.4999 19.2921 13.9079 19.7001 14.3999 19.7001C14.8919 19.7001 15.2999 19.2921 15.2999 18.8V15.644C16.5119 15.26 17.3999 14.144 17.3999 12.8Z" fill="#171717"/>
</svg>
