<svg xmlns="http://www.w3.org/2000/svg" width="27" height="27" fill="none" viewBox="0 0 27 27">
  <path fill="url(#a)" fill-rule="evenodd" d="M8.701 2.417h9.61c3.757 0 6.273 2.638 6.273 6.561v9.057c0 3.91-2.516 6.549-6.273 6.549H8.7c-3.757 0-6.284-2.638-6.284-6.55V8.979c0-3.923 2.527-6.561 6.284-6.561Zm4.167 14.397 5.265-5.264a.977.977 0 0 0 0-1.375.977.977 0 0 0-1.375 0l-4.577 4.578-1.94-1.94a.977.977 0 0 0-1.374 0 .977.977 0 0 0 0 1.374l2.638 2.627a.947.947 0 0 0 .676.277.954.954 0 0 0 .687-.277Z" clip-rule="evenodd"/>
  <defs>
    <linearGradient id="a" x1="24.584" x2="-1.793" y1="24.584" y2="16.936" gradientUnits="userSpaceOnUse">
      <stop stop-color="#246BFD"/>
      <stop offset="1" stop-color="#5089FD"/>
    </linearGradient>
  </defs>
</svg>
