<svg width="100" height="100" viewBox="0 0 100 100" fill="none" xmlns="http://www.w3.org/2000/svg">
<path opacity="0.4" d="M72.7083 72.0833C65.7083 72.0833 59.2498 68.7917 55.0415 63C54.0415 61.625 54.3332 59.6667 55.7082 58.6251C57.0832 57.5834 59.0416 57.9167 60.0833 59.2917C63.1249 63.4167 67.7083 65.7917 72.7083 65.7917C81.4166 65.7917 88.5415 58.7083 88.5415 49.9583C88.5415 41.2083 81.4583 34.125 72.7083 34.125C66.7916 34.125 61.2082 37.2917 58.1665 42.3334L47.1249 60.7084C42.9582 67.6667 35.3332 71.9583 27.2499 71.9583C15.0832 71.9583 5.1665 62.0417 5.1665 49.875C5.1665 37.7084 15.0832 27.7917 27.2499 27.7917C34.2499 27.7917 40.7082 31.0834 44.9165 36.8751C45.9165 38.2501 45.6249 40.2083 44.2499 41.25C42.8332 42.2917 40.9166 41.9583 39.8749 40.5833C36.8332 36.4583 32.2499 34.0833 27.2499 34.0833C18.5416 34.0833 11.4165 41.1667 11.4165 49.9167C11.4165 58.6667 18.4999 65.75 27.2499 65.75C33.1666 65.75 38.7499 62.5833 41.7915 57.5417L52.8332 39.1667C56.9998 32.2083 64.6249 27.9167 72.7083 27.9167C84.8749 27.9167 94.7915 37.8334 94.7915 50C94.7915 62.1667 84.8749 72.0833 72.7083 72.0833Z" fill="#171717"/>
<path d="M27.0833 58.3333C31.6857 58.3333 35.4167 54.6023 35.4167 50C35.4167 45.3976 31.6857 41.6666 27.0833 41.6666C22.481 41.6666 18.75 45.3976 18.75 50C18.75 54.6023 22.481 58.3333 27.0833 58.3333Z" fill="#171717"/>
<path d="M72.9166 58.3333C77.519 58.3333 81.2499 54.6023 81.2499 50C81.2499 45.3976 77.519 41.6666 72.9166 41.6666C68.3142 41.6666 64.5833 45.3976 64.5833 50C64.5833 54.6023 68.3142 58.3333 72.9166 58.3333Z" fill="#171717"/>
</svg>
